# xmcd CD database file
#
# Track frame offsets:
#	150
#	15048
#	28952
#	40335
#	59583
#	70857
#	82388
#	100949
#	115874
#	124811
#	136618
#	153732
#	162242
#	172937
#
# Disc length: 2461 seconds
#
# Revision: 2
# Processed by: cddbd v1.5.2PL0 Copyright (c) Steve Scherf et al.
# Submitted via: CDex 1.51
#
DISCID=b8099b0e
DTITLE=James Hunter - People Gonna Talk
DYEAR=2006
DGENRE=Rock
TTITLE0=People Gonna Talk
TTITLE1=No Smoke Without Fire
TTITLE2=You Can't Win
TTITLE3=Riot in My Heart
TTITLE4='Til Your Fool Comes Home
TTITLE5=Mollena
TTITLE6=I'll Walk Away
TTITLE7=Watch and Chain
TTITLE8=Kick It Around
TTITLE9=Don't Come Back
TTITLE10=It's Easy To Say
TTITLE11=Tell Her For Me
TTITLE12=Talking 'Bout My Love
TTITLE13=All Through Cryin'
EXTD=YEAR: 2006
EXTT0=
EXTT1=
EXTT2=
EXTT3=
EXTT4=
EXTT5=
EXTT6=
EXTT7=
EXTT8=
EXTT9=
EXTT10=
EXTT11=
EXTT12=
EXTT13=
PLAYORDER=
